<?xml version="1.0" encoding="UTF-8" standalone="no"?>
<svg
   id="Layer_1"
   data-name="Layer 1"
   viewBox="0 0 122.88 96.65"
   version="1.1"
   sodipodi:docname="sound-icon.svg"
   inkscape:version="1.3 (0e150ed6c4, 2023-07-21)"
   xmlns:inkscape="http://www.inkscape.org/namespaces/inkscape"
   xmlns:sodipodi="http://sodipodi.sourceforge.net/DTD/sodipodi-0.dtd"
   xmlns="http://www.w3.org/2000/svg"
   xmlns:svg="http://www.w3.org/2000/svg"
   xmlns:rdf="http://www.w3.org/1999/02/22-rdf-syntax-ns#"
   xmlns:cc="http://creativecommons.org/ns#"
   xmlns:dc="http://purl.org/dc/elements/1.1/">
  <defs
     id="defs1" />
  <sodipodi:namedview
     id="namedview1"
     pagecolor="#ffffff"
     bordercolor="#111111"
     borderopacity="1"
     inkscape:showpageshadow="0"
     inkscape:pageopacity="0"
     inkscape:pagecheckerboard="1"
     inkscape:deskcolor="#d1d1d1"
     inkscape:zoom="6.2992129"
     inkscape:cx="65.087497"
     inkscape:cy="51.990622"
     inkscape:window-width="1920"
     inkscape:window-height="1057"
     inkscape:window-x="-8"
     inkscape:window-y="-8"
     inkscape:window-maximized="1"
     inkscape:current-layer="Layer_1" />
  <title
     id="title1">sound</title>
  <path
     d="M 11,22.84 H 36.47 L 58.17,1 c 1.339315,-1.32030614 3.490685,-1.32030614 4.83,0 0.648969,0.6450454 1.009623,1.52504 1,2.44 v 0 89.76 c -0.01155,3.092342 -3.764516,4.617576 -5.93,2.41 L 36.65,77.49 H 11 c -6.0751322,0 -11,-4.924868 -11,-11 V 33.83 c 0,-6.075132 4.9248678,-11 11,-11 z m 65.12,15 c -1.796523,-4.289387 5.008068,-6.5204 6.1,-2 1.203448,4.315978 1.729712,8.792596 1.56,13.27 -0.09,4.76 -0.78,9.44 -2.13,12.21 -1.792459,4.130703 -7.952758,1.124902 -5.8,-2.83 0.93,-1.92 1.43,-5.59 1.5,-9.48 0.153995,-3.747515 -0.260711,-7.496733 -1.23,-11.12 z m 16.64,-12 c -1.653333,-3.999998 4.346667,-6.479998 6,-2.48 3,7.18 4.61,16.23 4.75,25.22 0.14,8.99 -1.17,17.72 -4,24.77 -1.599999,3.999998 -7.599999,1.599998 -6,-2.4 C 96,64.64 97.15,56.66 97,48.6 96.85,40.54 95.42,32.24 92.72,25.79 Z m 16.09,-10.23 c -1.86667,-3.866665 3.93333,-6.666665 5.8,-2.8 5.36372,11.402989 8.17574,23.838669 8.24,36.44 0.09,12.22 -2.37,24.39 -7.73,34.77 -2,3.819998 -7.73,0.819998 -5.73,-3 4.88,-9.43 7.11,-20.56 7,-31.77 -0.0502,-11.649403 -2.64393,-23.1473 -7.6,-33.69 z"
     id="path1"
     style="fill:#23ba15;fill-opacity:1"
     sodipodi:nodetypes="ccccsccccsssccccccccccccsccscccccccccc" />
  <metadata
     id="metadata1">
    <rdf:RDF>
      <cc:Work
         rdf:about="">
        <dc:title>sound</dc:title>
      </cc:Work>
    </rdf:RDF>
  </metadata>
</svg>
